<svg width="24" height="24" viewBox="0 0 24 24" fill="none" xmlns="http://www.w3.org/2000/svg">
<path fill-rule="evenodd" clip-rule="evenodd" d="M12 1.99963C6.475 1.99963 2 6.58763 2 12.2526C2 16.7896 4.862 20.6216 8.838 21.9796C9.338 22.0696 9.525 21.7616 9.525 21.4926C9.525 21.2496 9.512 20.4426 9.512 19.5826C7 20.0586 6.35 18.9566 6.15 18.3796C6.037 18.0846 5.55 17.1746 5.125 16.9316C4.775 16.7396 4.275 16.2646 5.112 16.2516C5.9 16.2396 6.462 16.9956 6.65 17.3026C7.55 18.8536 8.988 18.4186 9.562 18.1486C9.65 17.4826 9.912 17.0336 10.2 16.7776C7.975 16.5216 5.65 15.6376 5.65 11.7156C5.65 10.6006 6.037 9.67763 6.675 8.95963C6.575 8.70363 6.225 7.65263 6.775 6.24263C6.775 6.24263 7.612 5.97363 9.525 7.29363C10.325 7.06363 11.175 6.94763 12.025 6.94763C12.875 6.94763 13.725 7.06263 14.525 7.29363C16.437 5.96063 17.275 6.24363 17.275 6.24363C17.825 7.65263 17.475 8.70363 17.375 8.95963C18.012 9.67763 18.4 10.5876 18.4 11.7156C18.4 15.6496 16.063 16.5216 13.838 16.7776C14.2 17.0976 14.513 17.7136 14.513 18.6746C14.513 20.0456 14.5 21.1476 14.5 21.4946C14.5 21.7626 14.688 22.0836 15.188 21.9806C17.1849 21.2846 18.911 19.9756 20.12 18.2406C21.3456 16.4845 22.0019 14.3941 22 12.2526C22 6.58763 17.525 1.99963 12 1.99963Z" fill="#71717A"/>
</svg>
