<svg width="32" height="32" viewBox="0 0 32 32" fill="none" xmlns="http://www.w3.org/2000/svg">
<g clip-path="url(#clip0_148_2592)">
<path d="M32 16C32 7.16344 24.8366 0 16 0C7.16344 0 0 7.16344 0 16C0 24.8366 7.16344 32 16 32C24.8366 32 32 24.8366 32 16Z" fill="#F43F5E"/>
<path d="M9 11C9 10.4696 9.21071 9.96086 9.58579 9.58579C9.96086 9.21071 10.4696 9 11 9H13V21C13 21.5304 12.7893 22.0391 12.4142 22.4142C12.0391 22.7893 11.5304 23 11 23H9V11ZM19 11C19 10.4696 19.2107 9.96086 19.5858 9.58579C19.9609 9.21071 20.4696 9 21 9H23V21C23 21.5304 22.7893 22.0391 22.4142 22.4142C22.0391 22.7893 21.5304 23 21 23H19V11Z" fill="white"/>
<path d="M15.447 16.106C15.6131 15.7735 15.8686 15.4939 16.1848 15.2986C16.501 15.1032 16.8653 14.9998 17.237 15H21V17H15L15.447 16.106Z" fill="white"/>
</g>
<defs>
<clipPath id="clip0_148_2592">
<rect width="32" height="32" fill="white"/>
</clipPath>
</defs>
</svg>
